<svg version="1.1" id="Layer_1" xmlns="http://www.w3.org/2000/svg" xmlns:xlink="http://www.w3.org/1999/xlink" x="0px" y="0px"
	 width="257.1px" height="86.4px" viewBox="0 0 257.1 86.4" style="enable-background:new 0 0 257.1 86.4;" xml:space="preserve">
<g>
	<path style="fill:#DFC2C2;" d="M82.2,51.4c2.6,3.9,5.6,6.8,8.4,9.2c1.4,1.2,2.8,2.2,4.1,3.2c1.3,0.9,2.5,1.8,3.6,2.5
		c4.5,2.9,8.5,5.2,11.9,7.2c3.5,2,6.3,3.9,8.6,5.6c1.1,0.9,2.1,1.6,2.9,2.4c0.8,0.7,1.5,1.3,2,1.9c1,1.1,1.6,1.7,1.6,1.7
		s-0.3-0.8-1-2.4c-0.3-0.8-0.9-1.7-1.5-2.7c-0.6-1.1-1.5-2.2-2.5-3.4c-2-2.4-4.7-5.1-8-7.7c-3.3-2.7-7.3-5.3-11.6-8.2
		c-1.1-0.7-2.2-1.5-3.5-2.3c-1.2-0.9-2.6-1.8-3.9-2.8c-2.7-2.1-5.5-4.5-7.8-7.6c-2.3-3.1-4.1-7-4.9-11.3c-0.8-4.3-0.5-8.9,1.1-12.6
		c1.6-3.7,4.6-6.1,7.6-7.2c3-1.1,6-1.2,8.5-1c0.6,0,1.2,0.1,1.8,0.2c0.6,0.1,1.1,0.2,1.6,0.3c1,0.2,1.8,0.4,2.5,0.6
		c1.4,0.4,2.1,0.6,2.1,0.6s-0.7-0.3-2.1-0.9c-0.7-0.3-1.5-0.6-2.5-0.9c-0.5-0.2-1-0.3-1.6-0.5c-0.6-0.2-1.1-0.3-1.8-0.4
		c-2.5-0.5-5.6-0.8-8.9,0c-1.7,0.4-3.4,1.2-5.1,2.4c-1.6,1.2-3.1,3-4.3,5.1c-2.3,4.2-3,9.8-2.4,15C77.8,42.6,79.6,47.5,82.2,51.4z"
		/>
	<path style="fill:#DFC2C2;" d="M135.4,81.5c0.8-0.8,1.8-1.5,2.9-2.4c2.3-1.7,5.1-3.6,8.6-5.6c3.4-2.1,7.5-4.3,11.9-7.2
		c1.1-0.7,2.3-1.6,3.6-2.5c1.3-1,2.7-2,4.1-3.2c2.8-2.4,5.8-5.2,8.4-9.2c2.6-3.9,4.5-8.8,5.1-14c0.6-5.1-0.1-10.7-2.4-15
		c-1.1-2.1-2.7-3.8-4.3-5.1c-1.6-1.2-3.4-2-5.1-2.4c-3.4-0.9-6.5-0.5-8.9,0c-0.6,0.1-1.2,0.2-1.8,0.4c-0.6,0.2-1.1,0.3-1.6,0.5
		c-1,0.4-1.8,0.6-2.5,0.9c-1.3,0.6-2.1,0.9-2.1,0.9s0.8-0.2,2.1-0.6c0.7-0.2,1.5-0.4,2.5-0.6c0.5-0.1,1-0.2,1.6-0.3
		c0.6-0.1,1.1-0.2,1.8-0.2c2.5-0.2,5.4-0.2,8.5,1c3,1.1,6,3.5,7.6,7.2c1.7,3.7,1.9,8.3,1.1,12.6c-0.8,4.3-2.6,8.3-4.9,11.3
		c-2.3,3.1-5.2,5.6-7.8,7.6c-1.3,1.1-2.7,1.9-3.9,2.8c-1.3,0.8-2.4,1.6-3.5,2.3c-4.3,2.9-8.3,5.5-11.6,8.2c-3.4,2.6-6,5.3-8,7.7
		c-1,1.3-1.8,2.3-2.5,3.4c-0.6,1.1-1.2,1.9-1.5,2.7c-0.7,1.6-1,2.4-1,2.4s0.6-0.6,1.6-1.7C133.8,82.8,134.6,82.2,135.4,81.5z"/>
</g>
</svg>
